Coordinates
version=1
nRows=13
nColumns=34
inDegrees=yes

Units are S.I. units (second, meters, Newtons, ...)
If the header above contains a line with 'inDegrees', this indicates whether rotational values are in degrees (yes) or radians (no).

endheader
time	pelvis_tilt	pelvis_list	pelvis_rotation	pelvis_tx	pelvis_ty	pelvis_tz	hip_flexion_r	hip_adduction_r	hip_rotation_r	knee_angle_r	ankle_angle_r	subtalar_angle_r	mtp_angle_r	hip_flexion_l	hip_adduction_l	hip_rotation_l	knee_angle_l	ankle_angle_l	subtalar_angle_l	mtp_angle_l	lumbar_extension	lumbar_bending	lumbar_rotation	arm_flex_r	arm_add_r	arm_rot_r	elbow_flex_r	pro_sup_r	arm_flex_l	arm_add_l	arm_rot_l	elbow_flex_l	pro_sup_l
      8.00000000	    -41.35054528	      1.35175367	      1.36876352	      0.47673719	      0.75732980	     -0.10102157	    104.54167209	    -16.75518482	     -2.87898670	     89.63785179	     16.14545022	    -35.00000000	      0.00000000	    103.04164339	    -11.63743699	     -5.10174973	     87.38095822	     25.68826453	    -10.19380222	      0.00000000	    -21.43828680	      0.32684640	     -8.01580990	    115.76391571	     -3.33493382	     26.26648634	     61.77148214	     75.29689639	    -56.78535061	   -172.13305545	   -139.80765141	     54.36462889	     33.03377791
      8.01666670	    -40.69900130	      1.36870384	      1.62791782	      0.45248699	      0.77066603	     -0.10439871	    101.94588498	    -17.59063529	     -3.78844412	     87.01271804	     15.51289445	    -33.98196086	      0.00000000	    100.69866932	    -11.07202023	     -5.92650530	     85.09639300	     25.65207167	    -10.62903985	      0.00000000	    -21.61095128	      0.20627750	     -7.78801312	    115.82856385	     -3.84756518	     26.58171577	     60.40499322	     75.75174736	    -57.31209127	   -173.11725615	   -140.37779624	     53.39794883	     33.71663904
      8.03333330	    -40.18186171	      1.30715113	      1.96343125	      0.46376095	      0.79476280	     -0.10006310	     99.18568282	    -18.24863851	     -4.91669051	     84.44265553	     14.87122740	    -33.58821161	      0.00000000	     98.16066709	    -10.71376491	     -6.62209225	     82.17977403	     24.28736307	    -11.43248146	      0.00000000	    -21.53143359	      0.01819507	     -7.04171440	    115.05462271	     -5.91827538	     27.58922514	     61.92889211	     76.16682920	    -59.09039134	   -173.41066534	   -140.47849790	     54.85181762	     34.41983505
      8.05000000	    -39.16188188	      1.43146878	      2.00830745	      0.45243180	      0.81017978	     -0.10400899	     96.71890409	    -18.64811070	     -5.74386810	     81.87439213	     14.34595623	    -32.68175620	      0.00000000	     96.01624836	    -10.35763773	     -7.10217082	     80.16530242	     23.71620141	    -11.30788250	      0.00000000	    -21.69356353	     -0.21434632	     -7.11802835	    114.45775831	     -6.03944795	     28.23437769	     61.62433612	     76.38725611	    -59.87797946	   -173.65072440	   -140.09405640	     55.77049613	     35.14178065
      8.06666670	    -38.74492691	      1.68509754	      1.97888879	      0.46922650	      0.83245884	     -0.10677222	     94.12823796	    -19.16931851	     -6.72120007	     78.99235185	     13.32726619	    -32.18537846	      0.00000000	     93.21488176	    -10.09553390	     -7.92601429	     77.01936904	     23.29439195	    -10.87324909	      0.00000000	    -21.06776971	     -0.26949517	     -7.07676246	    113.01039581	     -5.53256910	     28.93686768	     62.25022214	     76.51396193	    -61.58192709	   -173.23470197	   -139.79562411	     55.37015465	     35.34006776
      8.08333330	    -37.99290583	      1.88085972	      1.89530608	      0.46408041	      0.84084266	     -0.10335745	     91.71983075	    -19.42902462	     -7.57773545	     76.74155159	     12.74880148	    -31.78026169	      0.00000000	     91.02013102	     -9.98682324	     -8.46084671	     74.95157991	     23.41097746	     -9.97761748	      0.00000000	    -20.87305839	     -0.49334179	     -6.89503264	    112.40874450	     -5.49060413	     29.37427381	     62.50582475	     76.65566973	    -62.32875152	   -173.30872610	   -140.12495496	     55.39606394	     35.76353327
      8.10000000	    -37.28116702	      1.85782172	      1.69826759	      0.46978358	      0.86210069	     -0.09702207	     89.23563779	    -19.18969670	     -8.61568608	     74.44211491	     12.33584639	    -31.15738590	      0.00000000	     88.62199794	    -10.31720376	     -9.00165636	     72.74027539	     22.14177593	    -10.20676172	      0.00000000	    -20.27726022	     -0.77349440	     -7.02524002	    110.78535767	     -4.97800256	     29.84835149	     62.48276492	     76.72225837	    -63.82511094	   -172.73169841	   -139.80089026	     54.82923931	     35.89909607
      8.11666670	    -36.52652766	      1.74434853	      1.54391397	      0.48166735	      0.87818990	     -0.09689483	     86.30332052	    -19.06790337	     -9.93286640	     72.01767021	     12.65447847	    -29.78782310	      0.00000000	     86.06702389	    -10.62497499	     -9.49179419	     70.68340203	     20.88867080	    -10.53993135	      0.00000000	    -19.44456507	     -0.86421361	     -6.59171515	    108.63377729	     -5.16533485	     29.91793827	     63.34306447	     76.83618337	    -66.20544804	   -172.14470676	   -139.35778236	     56.94901172	     36.40827830
      8.13333330	    -35.67593871	      2.01359113	      1.39189704	      0.48098102	      0.89837864	     -0.10204579	     83.54937655	    -19.06865040	    -10.61638756	     69.33397837	     12.29912918	    -28.24519090	      0.00000000	     83.05503936	    -10.49589261	    -10.34682079	     68.26043716	     19.98497838	    -10.51644084	      0.00000000	    -19.00486589	     -1.15818371	     -5.83807482	    107.36520703	     -5.84172818	     30.71153393	     63.75875376	     76.97749939	    -68.57719292	   -172.08711349	   -139.34164730	     57.56801930	     36.76788944
      8.15000000	    -34.76636081	      1.92129537	      1.24359471	      0.49307047	      0.91632044	     -0.09687373	     80.01299438	    -18.88345985	    -11.80162430	     66.39883801	     11.85538951	    -26.75354721	      0.00000000	     79.69928202	    -10.56228038	    -10.91082657	     65.17270034	     18.08603998	    -10.86646622	      0.00000000	    -18.22472456	     -1.21020767	     -5.44179821	    104.50324362	     -6.32507426	     30.54221767	     64.92908045	     77.03548513	    -71.78550875	   -171.46523774	   -139.81958554	     59.96233604	     37.18002702
      8.16666670	    -33.58703556	      1.89396732	      1.04274195	      0.49773006	      0.93527803	     -0.09540770	     76.12330172	    -18.54190148	    -12.87324756	     63.18728774	     11.94359489	    -25.18086489	      0.00000000	     76.69102997	    -10.66742197	    -11.56761552	     62.94340393	     16.19413749	    -11.46673205	      0.00000000	    -17.77310749	     -1.40166187	     -5.33449828	    102.17244371	     -6.08287494	     30.49110763	     65.61936734	     77.24764579	    -74.64850192	   -170.68800870	   -140.10432628	     62.20516266	     37.99876925
      8.18333330	    -32.33291587	      1.74062019	      0.89447893	      0.49783211	      0.95045647	     -0.09487349	     72.64008590	    -18.01092219	    -13.56997758	     60.27948670	     11.28716981	    -25.06936929	      0.00000000	     73.73211562	    -10.63112317	    -11.86257109	     60.39010361	     14.71386599	    -11.99415464	      0.00000000	    -17.77926928	     -1.48068772	     -4.75755232	    101.21437835	     -6.55245841	     31.14650978	     65.03253154	     77.38490631	    -76.13462571	   -170.76605252	   -139.58698908	     62.49153338	     38.32200904
      8.20000000	    -31.14239140	      1.39534295	      1.48259581	      0.49664484	      0.96261157	     -0.09589253	     69.67205401	    -17.96761914	    -14.35505980	     57.77792234	     11.31443974	    -24.35582563	      0.00000000	     71.17116711	     -9.91839679	    -11.67770342	     57.83124146	     13.56952657	    -12.06215787	      0.00000000	    -17.64408602	     -1.17508960	     -5.22391705	    100.21172685	     -6.90102389	     32.77760554	     65.97883962	     77.57907670	    -77.23526222	   -170.22260511	   -139.12557186	     62.34363104	     38.61698985
